<svg width="16" height="16" viewBox="0 0 16 16" fill="none" xmlns="http://www.w3.org/2000/svg">
<path d="M15.1434 4.19297C15.2971 3.62948 15.3394 3.04001 15.2679 2.45939C15.1964 1.87878 15.0125 1.3188 14.7271 0.812541C14.6568 0.687149 14.5556 0.583018 14.4337 0.51061C14.3118 0.438203 14.1736 0.40007 14.0329 0.400042C13.3912 0.398183 12.7573 0.545631 12.1788 0.831359C11.6002 1.11709 11.092 1.5337 10.692 2.05004H9.35561C8.95563 1.5337 8.44736 1.11709 7.86882 0.831359C7.29028 0.545631 6.65644 0.398183 6.01471 0.400042C5.87398 0.40007 5.73575 0.438203 5.61388 0.51061C5.49202 0.583018 5.39083 0.687149 5.32046 0.812541C5.03507 1.3188 4.85118 1.87878 4.77968 2.45939C4.70819 3.04001 4.75052 3.62948 4.90419 4.19297C4.58459 4.80216 4.41526 5.48277 4.41107 6.17503V6.72503C4.41233 7.64838 4.71413 8.54469 5.26833 9.27092C5.82253 9.99716 6.59719 10.5115 7.46867 10.7318C7.21595 11.1865 7.08327 11.7013 7.0838 12.225V12.5H6.01471C5.66028 12.5 5.32037 12.3552 5.06975 12.0973C4.81914 11.8394 4.67834 11.4897 4.67834 11.125C4.67746 10.323 4.36742 9.55414 3.81626 8.98704C3.26509 8.41994 2.51781 8.10094 1.73834 8.10003C1.52569 8.10003 1.32174 8.18695 1.17137 8.34167C1.021 8.49639 0.936523 8.70623 0.936523 8.92503C0.936523 9.14384 1.021 9.35368 1.17137 9.50839C1.32174 9.66311 1.52569 9.75003 1.73834 9.75003C2.09277 9.75003 2.43268 9.8949 2.68329 10.1528C2.93391 10.4106 3.07471 10.7604 3.07471 11.125C3.07559 11.927 3.38562 12.6959 3.93679 13.263C4.48795 13.8301 5.23524 14.1491 6.01471 14.15H7.0838V14.975C7.0838 15.1938 7.16827 15.4037 7.31864 15.5584C7.46901 15.7131 7.67296 15.8 7.88561 15.8C8.09827 15.8 8.30222 15.7131 8.45259 15.5584C8.60296 15.4037 8.68743 15.1938 8.68743 14.975V12.225C8.68743 11.8604 8.82823 11.5106 9.07885 11.2528C9.32946 10.9949 9.66937 10.85 10.0238 10.85C10.3782 10.85 10.7181 10.9949 10.9687 11.2528C11.2194 11.5106 11.3602 11.8604 11.3602 12.225V14.975C11.3602 15.1938 11.4446 15.4037 11.595 15.5584C11.7454 15.7131 11.9493 15.8 12.162 15.8C12.3746 15.8 12.5786 15.7131 12.7289 15.5584C12.8793 15.4037 12.9638 15.1938 12.9638 14.975V12.225C12.9643 11.7013 12.8316 11.1865 12.5789 10.7318C13.4504 10.5115 14.2251 9.99716 14.7793 9.27092C15.3335 8.54469 15.6353 7.64838 15.6365 6.72503V6.17503C15.6323 5.48277 15.463 4.80216 15.1434 4.19297ZM14.0329 6.72503C14.0329 7.38144 13.7795 8.01097 13.3283 8.47512C12.8772 8.93927 12.2654 9.20003 11.6274 9.20003H8.42016C7.78219 9.20003 7.17036 8.93927 6.71925 8.47512C6.26814 8.01097 6.01471 7.38144 6.01471 6.72503V6.17503C6.02156 5.68341 6.16357 5.20383 6.4243 4.79179C6.50741 4.68107 6.56089 4.54989 6.57942 4.4113C6.59794 4.2727 6.58086 4.13154 6.52987 4.00185C6.29987 3.39031 6.29039 2.71422 6.50315 2.0961C6.86323 2.16436 7.20578 2.30825 7.5094 2.51881C7.81302 2.72936 8.0712 3.00205 8.26781 3.31985C8.3403 3.43636 8.4401 3.53224 8.55803 3.59867C8.67596 3.66511 8.80823 3.69996 8.94268 3.70004H11.1042C11.2388 3.70008 11.3712 3.66528 11.4893 3.59884C11.6073 3.5324 11.7072 3.43645 11.7798 3.31985C11.9763 3.00197 12.2345 2.72921 12.5381 2.51865C12.8417 2.30809 13.1843 2.16424 13.5444 2.0961C13.7572 2.71422 13.7477 3.39031 13.5177 4.00185C13.4688 4.13251 13.453 4.27384 13.4718 4.41252C13.4906 4.55119 13.5435 4.68266 13.6253 4.79454C13.8849 5.20598 14.0262 5.68454 14.0329 6.17503V6.72503Z" fill="white"/>
</svg>
