<svg width="18" height="18" viewBox="0 0 18 18" fill="none" xmlns="http://www.w3.org/2000/svg">
<path d="M16.3333 0H1.66667C1.22464 0 0.800716 0.175595 0.488155 0.488155C0.175595 0.800716 0 1.22464 0 1.66667V16.3333C0 16.7754 0.175595 17.1993 0.488155 17.5118C0.800716 17.8244 1.22464 18 1.66667 18H16.3333C16.7754 18 17.1993 17.8244 17.5118 17.5118C17.8244 17.1993 18 16.7754 18 16.3333V1.66667C18 1.22464 17.8244 0.800716 17.5118 0.488155C17.1993 0.175595 16.7754 0 16.3333 0ZM16 16H2V2H16V16ZM7.66667 13V8.33333C7.66686 8.12552 7.7318 7.92292 7.85245 7.75371C7.9731 7.58451 8.14347 7.45709 8.33987 7.38917C8.53628 7.32126 8.74897 7.31623 8.94837 7.37477C9.14777 7.43331 9.32398 7.55252 9.4525 7.71583C9.96042 7.4496 10.5284 7.31891 11.1016 7.3364C11.6748 7.35388 12.2338 7.51895 12.7246 7.81565C13.2153 8.11234 13.6212 8.53063 13.903 9.03006C14.1849 9.5295 14.3331 10.0932 14.3333 10.6667V13C14.3333 13.2652 14.228 13.5196 14.0404 13.7071C13.8529 13.8946 13.5985 14 13.3333 14C13.0681 14 12.8138 13.8946 12.6262 13.7071C12.4387 13.5196 12.3333 13.2652 12.3333 13V10.6667C12.3333 10.313 12.1929 9.97391 11.9428 9.72386C11.6928 9.47381 11.3536 9.33333 11 9.33333C10.6464 9.33333 10.3072 9.47381 10.0572 9.72386C9.80714 9.97391 9.66667 10.313 9.66667 10.6667V13C9.66667 13.2652 9.56131 13.5196 9.37377 13.7071C9.18624 13.8946 8.93188 14 8.66667 14C8.40145 14 8.1471 13.8946 7.95956 13.7071C7.77202 13.5196 7.66667 13.2652 7.66667 13ZM6.33333 8.33333V13C6.33333 13.2652 6.22798 13.5196 6.04044 13.7071C5.8529 13.8946 5.59855 14 5.33333 14C5.06812 14 4.81376 13.8946 4.62623 13.7071C4.43869 13.5196 4.33333 13.2652 4.33333 13V8.33333C4.33333 8.06812 4.43869 7.81376 4.62623 7.62623C4.81376 7.43869 5.06812 7.33333 5.33333 7.33333C5.59855 7.33333 5.8529 7.43869 6.04044 7.62623C6.22798 7.81376 6.33333 8.06812 6.33333 8.33333ZM4 5C4 4.73629 4.0782 4.47851 4.22471 4.25924C4.37122 4.03997 4.57945 3.86908 4.82309 3.76816C5.06672 3.66724 5.33481 3.64084 5.59345 3.69229C5.8521 3.74373 6.08967 3.87072 6.27614 4.05719C6.46261 4.24366 6.5896 4.48124 6.64105 4.73988C6.69249 4.99852 6.66609 5.26661 6.56517 5.51024C6.46426 5.75388 6.29336 5.96212 6.07409 6.10863C5.85483 6.25513 5.59704 6.33333 5.33333 6.33333C4.97971 6.33333 4.64057 6.19286 4.39052 5.94281C4.14048 5.69276 4 5.35362 4 5Z" fill="white"/>
</svg>
