<svg width="17" height="17" viewBox="0 0 17 17" fill="none" xmlns="http://www.w3.org/2000/svg">
<path d="M16.0196 11.0172L12.1708 9.29181L12.1561 9.28527C11.9059 9.17741 11.6327 9.134 11.3614 9.15898C11.0901 9.18397 10.8294 9.27656 10.6032 9.4283C10.5714 9.44953 10.5409 9.47245 10.5116 9.49695L8.68817 11.0499C7.62565 10.4737 6.52798 9.38498 5.95095 8.33554L7.50877 6.48348C7.53381 6.45359 7.55701 6.4222 7.57824 6.38949C7.726 6.16403 7.81571 5.90553 7.83938 5.63702C7.86305 5.3685 7.81995 5.09829 7.71392 4.85046C7.7114 4.84572 7.70921 4.8408 7.70738 4.83575L5.98282 0.980431C5.84126 0.658015 5.59967 0.38974 5.29378 0.215308C4.9879 0.0408756 4.63399 -0.030445 4.28442 0.011901C3.09797 0.167759 2.00882 0.750169 1.22038 1.65035C0.431951 2.55054 -0.00184846 3.70694 5.92076e-06 4.90359C5.92076e-06 11.5738 5.42622 17 12.0964 17C13.2931 17.0018 14.4495 16.568 15.3496 15.7796C16.2498 14.9912 16.8322 13.902 16.9881 12.7156C17.0304 12.366 16.9591 12.0121 16.7847 11.7062C16.6103 11.4003 16.342 11.1587 16.0196 11.0172ZM12.0964 15.0384C9.40948 15.0352 6.83354 13.9664 4.93359 12.0664C3.03364 10.1665 1.96483 7.59052 1.96159 4.90359C1.95971 4.22643 2.1896 3.56902 2.61306 3.04059C3.03651 2.51217 3.62803 2.14455 4.28933 1.99882L5.82753 5.43158L4.26154 7.29672C4.23622 7.32688 4.21275 7.35854 4.19125 7.39153C4.03689 7.62737 3.94615 7.89911 3.92782 8.18038C3.90949 8.46164 3.96419 8.74287 4.08663 8.99675C4.85655 10.5726 6.44298 12.1484 8.03512 12.9199C8.2907 13.0411 8.57334 13.0938 8.85542 13.0731C9.1375 13.0523 9.40937 12.9587 9.64444 12.8014C9.67604 12.7801 9.70634 12.7569 9.73516 12.7319L11.5684 11.1733L15.0012 12.7107C14.8555 13.372 14.4878 13.9635 13.9594 14.3869C13.431 14.8104 12.7736 15.0403 12.0964 15.0384Z" fill="white"/>
</svg>
